<svg xmlns="http://www.w3.org/2000/svg" viewBox="0 0 64 64">
  <circle cx="32" cy="32" r="30" fill="#1b1430"/>
  <ellipse cx="32" cy="32" rx="27" ry="10" fill="none" stroke="#a78bfa" stroke-width="1.6" opacity="0.55" transform="rotate(-20 32 32)"/>
  <g fill="#e8a0b0" opacity="0.85">
    <ellipse cx="32" cy="21.5" rx="4.6" ry="9" transform="rotate(22.5 32 32)"/>
    <ellipse cx="32" cy="21.5" rx="4.6" ry="9" transform="rotate(67.5 32 32)"/>
    <ellipse cx="32" cy="21.5" rx="4.6" ry="9" transform="rotate(112.5 32 32)"/>
    <ellipse cx="32" cy="21.5" rx="4.6" ry="9" transform="rotate(157.5 32 32)"/>
    <ellipse cx="32" cy="21.5" rx="4.6" ry="9" transform="rotate(202.5 32 32)"/>
    <ellipse cx="32" cy="21.5" rx="4.6" ry="9" transform="rotate(247.5 32 32)"/>
    <ellipse cx="32" cy="21.5" rx="4.6" ry="9" transform="rotate(292.5 32 32)"/>
    <ellipse cx="32" cy="21.5" rx="4.6" ry="9" transform="rotate(337.5 32 32)"/>
  </g>
  <g fill="#d8697f">
    <ellipse cx="32" cy="20" rx="5.4" ry="11"/>
    <ellipse cx="32" cy="20" rx="5.4" ry="11" transform="rotate(45 32 32)"/>
    <ellipse cx="32" cy="20" rx="5.4" ry="11" transform="rotate(90 32 32)"/>
    <ellipse cx="32" cy="20" rx="5.4" ry="11" transform="rotate(135 32 32)"/>
    <ellipse cx="32" cy="20" rx="5.4" ry="11" transform="rotate(180 32 32)"/>
    <ellipse cx="32" cy="20" rx="5.4" ry="11" transform="rotate(225 32 32)"/>
    <ellipse cx="32" cy="20" rx="5.4" ry="11" transform="rotate(270 32 32)"/>
    <ellipse cx="32" cy="20" rx="5.4" ry="11" transform="rotate(315 32 32)"/>
  </g>
  <circle cx="32" cy="32" r="6.5" fill="#e0a23c"/>
  <circle cx="32" cy="32" r="6.5" fill="none" stroke="#f3d9a0" stroke-width="1"/>
</svg>
